<svg width="102" height="19" viewBox="0 0 102 19" fill="none" xmlns="http://www.w3.org/2000/svg">
<g clip-path="url(#clip0_3_732)">
<path d="M8.81497 18.0144L0 0.621099H4.94195L10.9379 13.3585L17.2769 0.621099H21.7416L12.9117 18.0144H8.81994H8.81497Z" fill="#878D96"/>
<path d="M18.6359 18.0144L27.201 0.621099H31.1768L39.7564 18.0144H35.3361L29.1961 5.20344L23.0562 18.0144H18.6359Z" fill="#878D96"/>
<path d="M39.7612 0.689712L52.606 0.621099C53.8722 0.621099 54.9603 0.875948 55.8902 1.38074C56.8102 1.88553 57.5224 2.58146 58.0269 3.46852C58.5363 4.35558 58.7836 5.36517 58.7836 6.49728C58.7836 7.698 58.4918 8.75659 57.9082 9.67796C57.3147 10.5993 56.5777 11.261 55.6924 11.6677L59.6343 18.0144H54.7823L51.3794 12.3637H46.1812V18.0144H41.9474V8.63897H52.5961C53.1699 8.63897 53.6348 8.45763 54.0008 8.08027C54.3569 7.7078 54.5399 7.1834 54.5399 6.49728C54.5399 5.81115 54.347 5.27695 53.9563 4.90449C53.5557 4.53202 53.1006 4.34578 52.5961 4.34578H41.9474L39.7563 0.689712H39.7612Z" fill="#878D96"/>
<path d="M66.1347 16.8491C64.5451 16.069 63.2636 15 62.3098 13.6421C61.3609 12.2745 60.8766 10.7384 60.8766 9.01446C60.8766 7.29054 61.356 5.74479 62.3098 4.38684C63.2587 3.01926 64.5402 1.95506 66.1347 1.17978C67.7391 0.390047 69.4999 0 71.4319 0C73.364 0 75.1395 0.390047 76.739 1.17978C78.3286 1.95987 79.6101 3.01926 80.5639 4.38684C81.5128 5.74479 81.9971 7.28091 81.9971 9.01446C81.9971 10.748 81.5177 12.2745 80.5639 13.6421C79.615 15 78.3335 16.0739 76.739 16.8491C75.1346 17.6292 73.3738 18.0145 71.4319 18.0145C69.4901 18.0145 67.7342 17.6244 66.1347 16.8491ZM74.5868 13.4735C75.5504 13.0739 76.3281 12.496 76.9248 11.7496C77.5118 10.9936 77.8101 10.0787 77.8101 9.01446C77.8101 7.95025 77.5118 7.02569 76.9248 6.2793C76.3281 5.52328 75.5455 4.94543 74.5868 4.54575C73.6135 4.14607 72.5667 3.94864 71.4368 3.94864C70.307 3.94864 69.27 4.14607 68.2967 4.5602C67.3233 4.95988 66.5456 5.53773 65.9586 6.29375C65.3717 7.04977 65.0733 7.95507 65.0733 9.01928C65.0733 10.0835 65.3717 10.9743 65.9586 11.7352C66.5456 12.4912 67.3282 13.069 68.2967 13.4832C69.27 13.8829 70.3167 14.0803 71.4368 14.0803C72.5569 14.0803 73.6183 13.8829 74.5868 13.4832V13.4735Z" fill="#878D96"/>
<path d="M88.9532 17.5569C87.8461 17.2534 86.867 16.8633 86.0305 16.3672C85.1793 15.871 84.4609 15.2834 83.8607 14.5994L86.5029 11.7479C86.8916 12.167 87.3639 12.5571 87.9101 12.9377C88.4562 13.3182 89.1254 13.6409 89.9077 13.9251C90.6802 14.2093 91.5609 14.3586 92.5401 14.3586C93.4651 14.3586 94.2917 14.2237 95.0248 13.9492C95.7432 13.6843 96.314 13.3808 96.7125 13.0244C97.1111 12.6679 97.3128 12.3597 97.3128 12.0996C97.3128 11.7961 97.1406 11.5649 96.806 11.406C96.4714 11.247 95.9892 11.1314 95.3545 11.0592C94.7198 10.9869 94.0113 10.9243 93.2142 10.8809C92.4515 10.8376 91.6643 10.7846 90.8623 10.7027C90.0553 10.6208 89.273 10.4811 88.5104 10.2933C87.7575 10.1054 87.0687 9.82126 86.4487 9.44074C85.8239 9.06022 85.3318 8.55928 84.9677 7.91385C84.5938 7.28286 84.4068 6.48329 84.4068 5.51513C84.4068 4.54697 84.7414 3.65106 85.4056 2.81296C86.0699 1.97003 87.0047 1.29569 88.2201 0.780307C89.4452 0.26492 90.8869 0 92.5598 0C93.8391 0 94.9904 0.134867 95.9892 0.409419C96.988 0.693605 97.8688 1.05004 98.6117 1.50281C99.3645 1.94595 100.044 2.49024 100.664 3.13568L97.977 5.76559C97.485 5.32246 96.9979 4.96602 96.5255 4.67221C96.063 4.37839 95.5267 4.13755 94.9018 3.95451C94.2769 3.76666 93.5241 3.67997 92.6237 3.67997C91.4822 3.67997 90.4637 3.88226 89.583 4.29168C88.6924 4.7011 88.2496 5.11052 88.2496 5.51031C88.2496 5.86674 88.4415 6.15093 88.8203 6.35323C89.209 6.55553 89.7552 6.70967 90.4539 6.81564C91.1526 6.92161 91.9349 7.00349 92.7959 7.08056C93.7406 7.16244 94.7099 7.26841 95.6743 7.41773C96.6535 7.56704 97.5539 7.79824 98.3952 8.12096C99.2317 8.4485 99.9205 8.93017 100.457 9.56116C100.993 10.1921 101.254 11.0351 101.254 12.0947C101.254 13.1544 100.91 14.1033 100.221 15.0088C99.522 15.9144 98.533 16.6417 97.2341 17.1956C95.9351 17.7447 94.3754 18.0145 92.5598 18.0145C91.2608 18.0145 90.0553 17.8555 88.9483 17.5521L88.9532 17.5569Z" fill="#878D96"/>
</g>
<defs>
<clipPath id="clip0_3_732">
<rect width="101.254" height="18.0145" fill="white"/>
</clipPath>
</defs>
</svg>
